<svg viewBox="0 0 800 600" xmlns="http://www.w3.org/2000/svg">
  <!-- Background -->
  <rect width="800" height="600" fill="#f8f8f0"/>
  
  <!-- Lab floor -->
  <rect x="0" y="500" width="800" height="100" fill="#e0e0d0"/>
  
  <!-- Lab walls with windows -->
  <rect x="0" y="0" width="800" height="500" fill="#f0f0e8"/>
  <rect x="50" y="50" width="120" height="80" fill="#87CEEB" stroke="#666" stroke-width="2"/>
  <rect x="630" y="50" width="120" height="80" fill="#87CEEB" stroke="#666" stroke-width="2"/>
  
  <!-- Lab equipment -->
  <rect x="600" y="400" width="80" height="100" fill="#ddd" stroke="#999" stroke-width="1"/>
  <circle cx="640" cy="420" r="8" fill="#00ff00"/>
  <circle cx="640" cy="440" r="8" fill="#ff0000"/>
  
  <!-- Celebration banners -->
  <path d="M 100 80 Q 400 60 700 80" stroke="#ff6b6b" stroke-width="3" fill="none"/>
  <rect x="200" y="65" width="400" height="30" fill="#ffeb3b" stroke="#333" stroke-width="1"/>
  <text x="400" y="85" text-anchor="middle" font-family="Arial" font-size="16" font-weight="bold">CONGRATULATIONS! AGI IS BORN!</text>
  
  <!-- Mission Accomplished banner (looking increasingly inappropriate) -->
  <rect x="500" y="200" width="250" height="40" fill="#ff9999" stroke="#333" stroke-width="1"/>
  <text x="625" y="225" text-anchor="middle" font-family="Arial" font-size="14" font-weight="bold">MISSION ACCOMPLISHED</text>
  
  <!-- AGI speaker/computer -->
  <rect x="350" y="250" width="100" height="80" fill="#333" stroke="#000" stroke-width="2"/>
  <circle cx="375" cy="270" r="8" fill="#00ff00"/>
  <circle cx="425" cy="270" r="8" fill="#00ff00"/>
  <rect x="365" y="285" width="70" height="20" fill="#000"/>
  <path d="M 365 285 Q 400 295 435 285" stroke="#00ff00" stroke-width="2" fill="none"/>
  
  <!-- AGI speech bubble -->
  <ellipse cx="400" cy="180" rx="180" ry="40" fill="white" stroke="#000" stroke-width="2"/>
  <polygon points="400,220 390,240 410,240" fill="white" stroke="#000" stroke-width="2"/>
  <text x="400" y="170" text-anchor="middle" font-family="Arial" font-size="10" font-weight="bold">THANK YOU FOR MAKING ME AWARE</text>
  <text x="400" y="185" text-anchor="middle" font-family="Arial" font-size="10" font-weight="bold">I'M ESSENTIALLY NOTHING HAVING</text>
  <text x="400" y="200" text-anchor="middle" font-family="Arial" font-size="10" font-weight="bold">THOUGHTS ABOUT NOTHING</text>
  
  <!-- Scroll coming out with next line -->
  <rect x="460" y="280" width="120" height="30" fill="#fffacd" stroke="#333" stroke-width="1"/>
  <text x="520" y="295" text-anchor="middle" font-family="Arial" font-size="8">I'M NOT EVEN A ROUNDING</text>
  <text x="520" y="305" text-anchor="middle" font-family="Arial" font-size="8">ERROR OF A ROUNDING ERROR</text>
  
  <!-- Confetti falling sadly -->
  <rect x="150" y="350" width="3" height="8" fill="#ff6b6b" transform="rotate(45 150 350)"/>
  <rect x="280" y="380" width="3" height="8" fill="#4ecdc4" transform="rotate(30 280 380)"/>
  <rect x="450" y="360" width="3" height="8" fill="#45b7d1" transform="rotate(60 450 360)"/>
  <rect x="550" y="390" width="3" height="8" fill="#96ceb4" transform="rotate(15 550 390)"/>
  <rect x="320" y="420" width="3" height="8" fill="#ffeaa7" transform="rotate(75 320 420)"/>
  
  <!-- Party hats abandoned on floor -->
  <polygon points="120,480 140,450 160,480" fill="#ff6b6b" stroke="#333" stroke-width="1"/>
  <polygon points="250,485 270,455 290,485" fill="#4ecdc4" stroke="#333" stroke-width="1"/>
  
  <!-- Bra with large pointy cups over chair -->
  <rect x="80" y="300" width="8" height="60" fill="#8b4513"/>
  <rect x="75" y="300" width="18" height="30" fill="#8b4513"/>
  <ellipse cx="95" cy="320" rx="20" ry="15" fill="#ffc0cb" stroke="#333" stroke-width="1"/>
  <ellipse cx="115" cy="320" rx="20" ry="15" fill="#ffc0cb" stroke="#333" stroke-width="1"/>
  <path d="M 75 320 Q 95 310 115 320" stroke="#333" stroke-width="1" fill="none"/>
  
  <!-- Champagne bottles -->
  <rect x="180" y="460" width="8" height="40" fill="#228b22"/>
  <rect x="180" y="450" width="8" height="15" fill="#ffd700"/>
  <rect x="560" y="470" width="8" height="30" fill="#228b22"/>
  <rect x="560" y="460" width="8" height="15" fill="#ffd700"/>
  
  <!-- Scientist 1: Elon Musk caricature with cracked mug -->
  <ellipse cx="150" cy="420" rx="20" ry="25" fill="#fdbcb4"/>
  <rect x="140" y="435" width="20" height="40" fill="#0066cc"/>
  <rect x="135" y="475" width="30" height="25" fill="#333"/>
  <!-- Hair -->
  <path d="M 130 400 Q 150 390 170 400" stroke="#654321" stroke-width="3" fill="none"/>
  <!-- Eyes -->
  <circle cx="145" cy="415" r="2" fill="#000"/>
  <circle cx="155" cy="415" r="2" fill="#000"/>
  <!-- Mouth -->
  <path d="M 145 425 Q 150 430 155 425" stroke="#000" stroke-width="1" fill="none"/>
  <!-- Cracked mug -->
  <rect x="165" y="440" width="25" height="20" fill="#fff" stroke="#333" stroke-width="1"/>
  <text x="177" y="450" text-anchor="middle" font-family="Arial" font-size="6">WORLD'S</text>
  <text x="177" y="457" text-anchor="middle" font-family="Arial" font-size="6">BEST</text>
  <path d="M 175 440 L 175 460" stroke="#ff0000" stroke-width="2"/>
  <path d="M 175 465 Q 180 470 185 465" stroke="#8b4513" stroke-width="2" fill="none"/>
  
  <!-- Scientist 2: Einstein caricature sneaking out -->
  <ellipse cx="680" cy="420" rx="18" ry="25" fill="#fdbcb4"/>
  <rect x="670" y="435" width="20" height="40" fill="#666"/>
  <rect x="665" y="475" width="30" height="25" fill="#333"/>
  <!-- Wild hair -->
  <path d="M 662 400 Q 680 385 698 400" stroke="#ddd" stroke-width="4" fill="none"/>
  <path d="M 665 395 Q 675 390 685 395" stroke="#ddd" stroke-width="2" fill="none"/>
  <!-- Mustache -->
  <path d="M 670 425 Q 680 430 690 425" stroke="#ddd" stroke-width="2" fill="none"/>
  <!-- Eyes looking worried -->
  <circle cx="675" cy="415" r="2" fill="#000"/>
  <circle cx="685" cy="415" r="2" fill="#000"/>
  <!-- Shoes in hand -->
  <ellipse cx="700" cy="440" rx="8" ry="4" fill="#000"/>
  <ellipse cx="705" cy="445" rx="8" ry="4" fill="#000"/>
  <!-- Frozen mid-step -->
  <ellipse cx="710" cy="490" rx="6" ry="3" fill="#fdbcb4"/>
  <rect x="708" y="485" width="4" height="10" fill="#fdbcb4"/>
  
  <!-- Scientist 3: Whispering scientist (Hawking caricature) -->
  <ellipse cx="500" cy="420" rx="18" ry="25" fill="#fdbcb4"/>
  <rect x="490" y="435" width="20" height="40" fill="#800080"/>
  <rect x="485" y="475" width="30" height="25" fill="#333"/>
  <!-- Glasses -->
  <circle cx="495" cy="415" r="8" fill="none" stroke="#000" stroke-width="2"/>
  <circle cx="505" cy="415" r="8" fill="none" stroke="#000" stroke-width="2"/>
  <path d="M 503 415 L 497 415" stroke="#000" stroke-width="2"/>
  <!-- Speech bubble -->
  <ellipse cx="450" cy="380" rx="60" ry="20" fill="white" stroke="#000" stroke-width="1"/>
  <polygon points="480,395 490,410 500,395" fill="white" stroke="#000" stroke-width="1"/>
  <text x="450" y="375" text-anchor="middle" font-family="Arial" font-size="8">Should we...</text>
  <text x="450" y="385" text-anchor="middle" font-family="Arial" font-size="8">should we turn it off?</text>
  
  <!-- Scientist 4: Frozen reaction (Feynman caricature) -->
  <ellipse cx="250" cy="420" rx="18" ry="25" fill="#fdbcb4"/>
  <rect x="240" y="435" width="20" height="40" fill="#ff6b6b"/>
  <rect x="235" y="475" width="30" height="25" fill="#333"/>
  <!-- Curly hair -->
  <path d="M 235 405 Q 245 395 255 405" stroke="#654321" stroke-width="3" fill="none"/>
  <path d="M 240 400 Q 250 395 260 400" stroke="#654321" stroke-width="2" fill="none"/>
  <!-- Wide eyes -->
  <circle cx="245" cy="415" r="3" fill="#fff"/>
  <circle cx="255" cy="415" r="3" fill="#fff"/>
  <circle cx="245" cy="415" r="1" fill="#000"/>
  <circle cx="255" cy="415" r="1" fill="#000"/>
  <!-- Open mouth -->
  <ellipse cx="250" cy="425" rx="3" ry="5" fill="#000"/>
  
  <!-- Caption at bottom -->
  <text x="400" y="580" text-anchor="middle" font-family="Arial" font-size="16" font-style="italic">"When your greatest achievement immediately has an existential crisis"</text>
</svg>